<svg width="48" height="48" viewBox="0 0 48 48" fill="none" xmlns="http://www.w3.org/2000/svg">
<path d="M32.253 12.46C32.985 13.192 34.171 13.194 34.903 12.46L37.511 9.85201C38.242 9.12001 38.24 7.93401 37.511 7.20101L30.928 0.620014C30.198 -0.111986 29.012 -0.111986 28.28 0.620014L25.671 3.22801C24.941 3.96001 24.941 5.14601 25.671 5.87601L32.253 12.46Z" fill="url(#paint0_linear_401_61)"/>
<path d="M16.667 28.338C17.398 29.067 18.584 29.067 19.315 28.338L21.924 25.728C22.656 24.998 22.656 23.811 21.924 23.079L15.341 16.496C14.61 15.766 13.424 15.764 12.692 16.496L10.084 19.104C9.35199 19.836 9.35399 21.022 10.084 21.754L16.667 28.338Z" fill="url(#paint1_linear_401_61)"/>
<path d="M46.549 28.964L43.902 26.314C43.168 25.584 41.985 25.584 41.254 26.314L40.093 27.474L28.888 16.267L31.315 13.839L24.582 7.108L22.154 9.536L19.062 12.626L16.688 15L23.42 21.733L25.797 19.36L37 30.565L35.952 31.614C35.22 32.343 35.218 33.53 35.952 34.262L38.599 36.91C39.333 37.644 40.518 37.644 41.249 36.91L46.548 31.613C47.281 30.88 47.281 29.696 46.549 28.964Z" fill="url(#paint2_linear_401_61)"/>
<path d="M26.978 37.013C26.978 35.814 26.006 34.84 24.805 34.84H7.837C6.637 34.84 5.664 35.814 5.664 37.013V40.54H0.901001V47.929H31.459V40.54H26.978V37.013Z" fill="url(#paint3_linear_401_61)"/>
<defs>
<linearGradient id="paint0_linear_401_61" x1="31.591" y1="0.0710144" x2="31.591" y2="13.0098" gradientUnits="userSpaceOnUse">
<stop stop-color="#EF8080"/>
<stop offset="1" stop-color="#F0145A"/>
</linearGradient>
<linearGradient id="paint1_linear_401_61" x1="16.0044" y1="15.9478" x2="16.0044" y2="28.8848" gradientUnits="userSpaceOnUse">
<stop stop-color="#EF8080"/>
<stop offset="1" stop-color="#F0145A"/>
</linearGradient>
<linearGradient id="paint2_linear_401_61" x1="31.8929" y1="7.108" x2="31.8929" y2="37.4605" gradientUnits="userSpaceOnUse">
<stop stop-color="#EF8080"/>
<stop offset="1" stop-color="#F0145A"/>
</linearGradient>
<linearGradient id="paint3_linear_401_61" x1="16.18" y1="34.84" x2="16.18" y2="47.929" gradientUnits="userSpaceOnUse">
<stop stop-color="#EF8080"/>
<stop offset="1" stop-color="#F0145A"/>
</linearGradient>
</defs>
</svg>
