<svg width="138" height="61" viewBox="0 0 138 61" fill="none" xmlns="http://www.w3.org/2000/svg">
<path fill-rule="evenodd" clip-rule="evenodd" d="M26.542 4.66656L26.7567 6.19156C19.9027 20.0538 28.6427 18.9253 28.6427 18.9253L29.7467 18.7271L29.9153 19.0626C46.1533 17.2326 55.0313 25.6353 55.0313 25.6353C56.212 5.74931 26.542 4.66656 26.542 4.66656Z" fill="#F8B829"/>
<path d="M16.3453 51.4993C15.6553 56.0743 19.412 58.7278 20.01 57.2638C21.666 55.1136 22.2487 55.7388 23.0767 52.5058C23.379 52.1043 23.7291 51.7408 24.1193 51.4231C24.9576 50.5589 25.7651 49.6744 26.542 48.7696C28.8335 46.1914 30.791 43.3378 32.3687 40.2753C34.1192 37.1831 34.7574 33.5898 34.178 30.0883C33.5509 28.317 32.6564 26.651 31.5253 25.1473C31.1801 24.3601 31.0226 23.5041 31.0653 22.6463C31.0273 21.3631 30.6405 20.1141 29.946 19.0321C29.5875 18.6475 29.3147 18.192 29.1456 17.6953C28.9764 17.1985 28.9148 16.6719 28.9647 16.1498C29.164 14.9908 29.164 13.8471 29.3327 12.6881C29.4389 10.5223 29.0401 8.36154 28.1673 6.37456C28.1673 6.37456 27.094 4.48356 26.1433 4.95631C24.4507 3.89046 22.4834 3.33609 20.4802 3.36045C18.477 3.38481 16.5239 3.98687 14.858 5.09356C14.858 5.09356 -7.09932 19.0473 12.696 45.8568C12.098 49.3338 14.2293 52.9176 15.8853 55.2966" fill="#005D86"/>
<path d="M26.45 20.8926L23.4753 7.41157C23.4753 7.41157 21.7273 2.22657 17.1273 8.76882L16.3607 7.76232C12.1287 13.7251 6.39399 20.8773 7.66666 28.6243C7.85177 30.0543 8.34828 31.4268 9.12157 32.6463C9.89486 33.8658 10.9263 34.9028 12.144 35.6851C13.9384 36.9244 16.1108 37.5033 18.2878 37.3224C20.4649 37.1416 22.5106 36.2121 24.0733 34.6938C26.4653 32.7113 28.4127 28.6853 26.45 20.8926Z" fill="white"/>
<path fill-rule="evenodd" clip-rule="evenodd" d="M29.9153 19.1083C29.9153 19.1083 44.114 16.9123 55.0313 25.6811C55.0313 25.6811 44.758 12.2763 28.382 14.7621C28.3973 14.7621 27.2167 18.0561 29.9153 19.1083Z" fill="#F19320"/>
<path d="M55.0313 25.681C55.3199 22.222 54.4404 18.766 52.532 15.86C52.3786 15.6617 51.198 18.2237 51.1826 18.4525C51.1199 19.5211 51.3817 20.5838 51.934 21.5025C52.716 22.936 54.6173 24.1102 55.0006 25.6505" fill="#E95253"/>
<path d="M1.53333 45.0485C3.54029 45.8081 5.73021 45.9516 7.82 45.4603C10.7487 45.8568 12.282 46.7718 15.778 47.1683C20.056 47.1683 24.3033 46.7108 28.5507 46.3143C29.9307 46.1923 32.9973 46.0245 34.1627 47.1073C34.8373 47.7325 34.638 49.4253 34.6533 50.3098C32.1186 49.3485 29.4498 48.7827 26.7413 48.6323C23.6747 48.6323 20.5007 48.7695 17.388 48.739C15.2648 48.7452 13.1454 48.5615 11.0553 48.19C9.108 47.824 7.19133 47.3208 5.244 46.9243C3.83333 46.6193 2.116 46.3753 1.53333 45.0485Z" fill="#9B5F48"/>
<path d="M28.8727 47.7935C28.8727 48.2815 28.4433 49.3185 28.0447 49.3185C27.646 49.3185 27.2167 48.2968 27.2167 47.7935V46.0703C27.2167 45.5823 27.5233 45.0943 27.922 45.0943C28.1631 45.131 28.3849 45.2471 28.5517 45.4241C28.7185 45.6011 28.8207 45.8286 28.842 46.0703L28.8727 47.7935Z" fill="#969595"/>
<path d="M27.2167 48.0376C27.2167 48.4188 26.91 49.2118 26.588 49.2118C26.266 49.2118 25.9593 48.4188 25.9593 48.0376V46.6803C25.9593 46.2991 26.1893 45.9178 26.5113 45.9178C26.6957 45.9463 26.8642 46.0382 26.9875 46.1776C27.1108 46.3169 27.181 46.4948 27.186 46.6803L27.2167 48.0376Z" fill="#838383"/>
<path d="M12.006 47.7935C12.006 48.2815 12.4353 49.3185 12.834 49.3185C13.2327 49.3185 13.662 48.2968 13.662 47.7935V46.0703C13.662 45.5823 13.3553 45.0943 12.9567 45.0943C12.7156 45.131 12.4938 45.2471 12.327 45.4241C12.1602 45.6011 12.0579 45.8286 12.0367 46.0703L12.006 47.7935Z" fill="#969595"/>
<path d="M13.662 48.0376C13.662 48.4188 13.9687 49.2118 14.2907 49.2118C14.6127 49.2118 14.9193 48.4188 14.9193 48.0376V46.6803C14.9193 46.2991 14.6893 45.9178 14.3673 45.9178C14.1829 45.9463 14.0144 46.0382 13.8911 46.1776C13.7679 46.3169 13.6976 46.4948 13.6927 46.6803L13.662 48.0376Z" fill="#838383"/>
<path d="M29.578 14.457C29.946 13.5878 30.6207 10.8885 28.75 6.23729C28.4127 5.52054 27.5693 3.85828 25.7753 4.71228C25.5147 5.10878 29.0107 7.28953 28.29 14.9755C28.29 14.9755 27.3853 18.1933 29.9153 19.093C29.5388 18.3018 29.345 17.4369 29.348 16.5615C29.2944 15.8519 29.3724 15.1386 29.578 14.457V14.457ZM29.4093 14.762C29.4093 14.762 29.4093 14.762 29.4247 14.762H29.4093Z" fill="#003B55"/>
<path d="M26.542 11.6205C27.2167 15.2195 25.4073 17.263 21.8193 17.3088C19.0593 17.3088 15.042 16.7293 14.6587 13.3743C14.3367 10.4615 16.192 6.51179 19.1667 5.62729C23.2913 4.37679 25.898 8.08254 26.5573 11.6205H26.542Z" fill="#F8B829"/>
<path d="M24.3493 11.3613C24.4909 11.7848 24.5208 12.2374 24.4362 12.6758C24.3515 13.1141 24.1552 13.5235 23.8659 13.8648C23.5766 14.2061 23.2041 14.4678 22.784 14.6249C22.3639 14.7819 21.9103 14.8292 21.4667 14.762C19.7187 14.762 17.2807 14.3503 17.1273 12.2305C17.0453 11.2664 17.2727 10.3012 17.7769 9.47366C18.281 8.64614 19.036 7.99891 19.9333 7.625C22.402 6.93875 23.9353 9.15 24.3033 11.3003L24.3493 11.3613Z" fill="#005D86"/>
<path fill-rule="evenodd" clip-rule="evenodd" d="M23 10.9038C23 11.4721 22.773 12.017 22.369 12.4189C21.965 12.8207 21.417 13.0464 20.8457 13.0464C20.2743 13.0464 19.7263 12.8207 19.3223 12.4189C18.9183 12.017 18.6913 11.4721 18.6913 10.9038C18.6913 10.3355 18.9183 9.79055 19.3223 9.38873C19.7263 8.98691 20.2743 8.76117 20.8457 8.76117C21.417 8.76117 21.965 8.98691 22.369 9.38873C22.773 9.79055 23 10.3355 23 10.9038V10.9038Z" fill="#151410"/>
<path fill-rule="evenodd" clip-rule="evenodd" d="M21.1447 9.54658C21.1447 9.92783 20.8073 9.54658 20.8073 9.54658C20.8073 9.54658 21.1447 9.15008 21.1447 9.54658Z" fill="white"/>
<path fill-rule="evenodd" clip-rule="evenodd" d="M19.9333 9.53134C19.7187 9.53134 19.6727 9.76009 19.642 10.0041C19.5842 10.026 19.532 10.0605 19.4894 10.105C19.4467 10.1496 19.4147 10.2031 19.3955 10.2616C19.3764 10.3202 19.3707 10.3822 19.3789 10.4432C19.387 10.5042 19.4088 10.5626 19.4427 10.6141C19.4427 10.6141 20.4853 9.63809 20.562 9.69909C20.475 9.62873 20.374 9.57742 20.2657 9.54851C20.1573 9.5196 20.0441 9.51375 19.9333 9.53134V9.53134Z" fill="white"/>
<path d="M54.2033 44.7131C54.3242 44.7103 54.4442 44.7333 54.5554 44.7807C54.6665 44.8281 54.766 44.8986 54.8473 44.9876L56.6567 46.9091C53.912 50.3861 48.6527 51.1639 44.6353 49.6846C42.6383 48.8725 40.9337 47.4807 39.7439 45.6907C38.5541 43.9007 37.9343 41.7957 37.9653 39.6501C37.8002 37.4764 38.2859 35.3026 39.361 33.4029C40.4361 31.5032 42.0525 29.9626 44.0067 28.9751C46.0232 28.0417 48.2722 27.7217 50.471 28.0555C52.6698 28.3892 54.7205 29.3617 56.3653 30.8509L54.832 32.9249C54.004 34.1144 52.7313 32.8029 51.8727 32.3911C50.5988 31.8071 49.1782 31.6159 47.794 31.8421C46.3732 32.1344 45.0938 32.8964 44.1639 34.004C43.234 35.1116 42.7084 36.4996 42.6727 37.9421C42.4469 39.309 42.5795 40.7107 43.0576 42.0117C43.5357 43.3127 44.3432 44.469 45.402 45.3689C46.6119 46.175 48.052 46.5691 49.5062 46.4921C50.9604 46.4151 52.3503 45.8712 53.4673 44.9419C53.68 44.7858 53.9392 44.7053 54.2033 44.7131V44.7131Z" fill="white"/>
<path d="M62.8667 27.6178V50.0963H58.65V27.6178H62.8667Z" fill="white"/>
<path d="M70.6254 34.5566V50.1116H66.4547V34.5566H70.6254Z" fill="white"/>
<path d="M71.1313 30.0426C71.1313 33.2908 65.9487 33.3061 65.9487 30.0426C65.9487 26.7791 71.1313 26.7791 71.1313 30.0426Z" fill="white"/>
<path d="M85.5447 38.0184C84.8854 38.9029 84.18 38.3539 83.444 38.0184C82.5367 37.5089 81.4754 37.3411 80.454 37.5457C78.338 38.0184 77.7247 40.1687 77.6634 42.1207C77.602 44.0727 78.016 46.2992 79.948 47.0769C80.4404 47.264 80.9655 47.3509 81.4922 47.3326C82.019 47.3143 82.5367 47.191 83.0147 46.9702C83.766 46.6194 84.8394 45.2927 85.6214 46.3144L86.8174 47.8394C85.7368 48.9777 84.3498 49.7828 82.8219 50.1587C81.2939 50.5346 79.6895 50.4653 78.2 49.9592C76.732 49.3718 75.4826 48.3472 74.6234 47.0257C73.7641 45.7042 73.337 44.1506 73.4007 42.5782C73.2575 40.9727 73.6244 39.3631 74.4497 37.9761C75.2749 36.589 76.5169 35.4944 78.0007 34.8464C79.46 34.2867 81.05 34.1544 82.5826 34.4652C84.1152 34.776 85.5262 35.5169 86.6487 36.6002L85.5447 38.0184Z" fill="white"/>
<path d="M93.0733 27.6178V40.382H93.7633C93.9732 40.392 94.1822 40.3481 94.3701 40.2546C94.5581 40.1612 94.7187 40.0212 94.8367 39.8483L98.2867 35.2733C98.4456 35.0499 98.6575 34.869 98.9036 34.7466C99.1497 34.6243 99.4223 34.5642 99.6973 34.5718H103.515L99.0533 40.2143C98.7239 40.6637 98.3067 41.0423 97.8267 41.3275C98.2783 41.6694 98.6541 42.1003 98.9307 42.5933L103.761 50.081H100.004C99.7255 50.1006 99.447 50.0442 99.1984 49.9179C98.9498 49.7916 98.7406 49.6002 98.5933 49.3643L95.0667 43.6608C94.9603 43.4635 94.7966 43.3026 94.5969 43.1992C94.3973 43.0958 94.1709 43.0547 93.9473 43.0813H93.0733V50.0963H88.9333V27.6178H93.0733Z" fill="white"/>
<path d="M109.618 27.6178V40.382H110.308C110.518 40.392 110.727 40.3481 110.915 40.2546C111.103 40.1612 111.263 40.0212 111.381 39.8483L114.831 35.2733C114.99 35.0499 115.202 34.869 115.448 34.7466C115.694 34.6243 115.967 34.5642 116.242 34.5718H120.06L115.567 40.2448C115.238 40.6942 114.821 41.0728 114.341 41.358C114.792 41.6999 115.168 42.1308 115.445 42.6238L120.275 50.1115H116.533C116.255 50.1311 115.976 50.0747 115.728 49.9484C115.479 49.8221 115.27 49.6307 115.123 49.3948L111.611 43.676C111.505 43.4787 111.341 43.3178 111.142 43.2145C110.942 43.1111 110.716 43.07 110.492 43.0965H109.618V50.1115H105.432V27.6178H109.618Z" fill="white"/>
<path d="M128.033 54.2748C127.926 54.5414 127.736 54.7668 127.49 54.9178C127.244 55.0688 126.956 55.1374 126.669 55.1136H123.602L126.515 48.8001L120.244 34.4956H123.909C124.157 34.4843 124.402 34.5502 124.611 34.6841C124.82 34.818 124.982 35.0133 125.074 35.2428L128.049 42.7001C128.263 43.2897 128.447 43.8794 128.601 44.4691C128.785 43.8743 128.999 43.2796 129.229 42.6848L131.989 35.2581C132.081 35.0348 132.239 34.8442 132.441 34.711C132.643 34.5778 132.881 34.508 133.124 34.5108H136.467L128.033 54.2748Z" fill="white"/>
</svg>
