<svg width="174" height="44" viewBox="0 0 174 44" fill="none" xmlns="http://www.w3.org/2000/svg">
<g clip-path="url(#clip0_401_145)">
<path d="M44.1065 22C44.1065 17.0441 42.4291 12.2333 39.3461 8.34719C36.2631 4.46104 31.9551 1.72718 27.12 0.588541C22.285 -0.550098 17.2063 -0.0268067 12.7066 2.07363C8.20691 4.17407 4.54997 7.7286 2.32825 12.1613C0.106526 16.594 -0.549813 21.6453 0.465572 26.4966C1.48096 31.3479 4.10858 35.7151 7.92271 38.8906C11.7368 42.0661 16.514 43.8638 21.4803 43.9926C26.4465 44.1214 31.3109 42.5736 35.2852 39.6H21.4946C18.0497 39.5068 14.7075 38.4091 11.8809 36.4425C9.05426 34.4759 6.86685 31.7265 5.58877 28.5338C4.31069 25.3411 3.9979 21.8449 4.68902 18.4769C5.38015 15.1088 7.04492 12.0165 9.47779 9.5816C11.9107 7.14673 15.0051 5.47596 18.379 4.77559C21.7529 4.07522 25.2586 4.37592 28.4631 5.64056C31.6677 6.9052 34.4308 9.0784 36.4113 11.8918C38.3918 14.7053 39.503 18.0357 39.6076 21.472V35.2C42.5254 31.4153 44.1071 26.7745 44.1065 22V22Z" fill="white"/>
<path d="M33.0651 32.9854V23.7454H26.2139C25.7947 24.7115 25.0648 25.5108 24.1395 26.017C23.2143 26.5232 22.1463 26.7075 21.1043 26.5409C20.0624 26.3743 19.1057 25.8662 18.3854 25.0968C17.6651 24.3274 17.2223 23.3406 17.1267 22.2922C17.0312 21.2438 17.2884 20.1935 17.8578 19.3072C18.4272 18.4208 19.2763 17.7489 20.2711 17.3976C21.2659 17.0462 22.3497 17.0355 23.3513 17.3669C24.3529 17.6984 25.2153 18.3533 25.8023 19.2281H32.727C32.239 17.227 31.2033 15.4005 29.7356 13.9522C28.2679 12.5039 26.4257 11.4909 24.4146 11.0259C22.4034 10.561 20.3024 10.6624 18.3456 11.319C16.3889 11.9756 14.6535 13.1615 13.3329 14.7445C12.0123 16.3274 11.1584 18.2452 10.8664 20.284C10.5744 22.3227 10.8559 24.4023 11.6794 26.2908C12.5029 28.1793 13.836 29.8025 15.5301 30.9794C17.2243 32.1563 19.2128 32.8407 21.274 32.9561L33.0651 32.9854Z" fill="white"/>
<path d="M59.3967 15.796C57.8969 15.7989 56.4316 16.2452 55.186 17.0786C53.9403 17.9119 52.9703 19.0949 52.3983 20.478C51.8264 21.8611 51.6783 23.3823 51.9726 24.8494C52.267 26.3165 52.9907 27.6636 54.0523 28.7206C55.1138 29.7775 56.4656 30.4968 57.9368 30.7877C59.408 31.0785 60.9326 30.9278 62.3179 30.3545C63.7033 29.7813 64.8872 28.8113 65.7202 27.567C66.5531 26.3228 66.9977 24.8602 66.9977 23.364C67.0076 22.3662 66.8176 21.3765 66.4389 20.4529C66.0602 19.5293 65.5005 18.6904 64.7925 17.9855C64.0845 17.2806 63.2425 16.7238 62.316 16.3478C61.3894 15.9719 60.3969 15.7843 59.3967 15.796V15.796ZM59.3967 27.324C58.8772 27.3324 58.3614 27.235 57.8808 27.0378C57.4003 26.8406 56.9651 26.5478 56.6019 26.1771C56.2386 25.8065 55.9549 25.3659 55.7681 24.8822C55.5813 24.3986 55.4953 23.882 55.5153 23.364C55.4827 22.8345 55.559 22.3039 55.7397 21.805C55.9203 21.306 56.2015 20.8493 56.5658 20.4628C56.9301 20.0763 57.3698 19.7683 57.858 19.5578C58.3461 19.3473 58.8722 19.2387 59.404 19.2387C59.9358 19.2387 60.462 19.3473 60.9501 19.5578C61.4382 19.7683 61.878 20.0763 62.2423 20.4628C62.6066 20.8493 62.8877 21.306 63.0684 21.805C63.2491 22.3039 63.3254 22.8345 63.2928 23.364C63.3129 23.8832 63.2265 24.4011 63.0387 24.8857C62.851 25.3704 62.566 25.8117 62.2012 26.1826C61.8363 26.5534 61.3994 26.8459 60.9171 27.0422C60.4348 27.2385 59.9174 27.3344 59.3967 27.324V27.324ZM73.1285 18.6707V16.1333H69.4236V30.4774H73.1285V23.6867C73.1021 23.1328 73.2051 22.5804 73.4294 22.0731C73.6536 21.5657 73.993 21.1173 74.4207 20.7632C74.8484 20.409 75.3527 20.1589 75.8939 20.0325C76.4351 19.906 76.9983 19.9068 77.5391 20.0347V15.9133C76.6058 15.8468 75.6755 16.0781 74.8826 16.5738C74.0898 17.0694 73.4754 17.8038 73.1285 18.6707V18.6707ZM90.3006 17.8933C89.7402 17.2032 89.0252 16.6539 88.2132 16.2897C87.4011 15.9254 86.5148 15.7563 85.6253 15.796C84.6687 15.8337 83.729 16.0597 82.8603 16.461C81.9915 16.8622 81.2109 17.4309 80.5632 18.1342C79.9156 18.8376 79.4137 19.6617 79.0865 20.5592C78.7593 21.4567 78.6131 22.41 78.6565 23.364C78.6131 24.3181 78.7593 25.2713 79.0865 26.1688C79.4137 27.0663 79.9156 27.8905 80.5632 28.5938C81.2109 29.2971 81.9915 29.8658 82.8603 30.2671C83.729 30.6684 84.6687 30.8943 85.6253 30.932C86.5148 30.9717 87.4011 30.8026 88.2132 30.4384C89.0252 30.0741 89.7402 29.5248 90.3006 28.8347V30.536H94.0056V16.1333H90.3006V17.8933ZM86.3163 27.412C85.7817 27.4311 85.2489 27.3389 84.7519 27.1413C84.2549 26.9436 83.8047 26.6449 83.4298 26.264C83.055 25.8832 82.7638 25.4287 82.5748 24.9294C82.3858 24.4301 82.3031 23.897 82.332 23.364C82.332 22.3138 82.7503 21.3065 83.4947 20.5639C84.2392 19.8212 85.2488 19.404 86.3016 19.404C87.3544 19.404 88.3641 19.8212 89.1085 20.5639C89.853 21.3065 90.2712 22.3138 90.2712 23.364C90.2977 23.8939 90.2142 24.4235 90.0262 24.9197C89.8382 25.416 89.5495 25.8682 89.1784 26.2481C88.8072 26.628 88.3614 26.9275 87.869 27.1277C87.3765 27.328 86.848 27.4248 86.3163 27.412ZM105.223 15.796C104.398 15.7419 103.572 15.8979 102.824 16.2493C102.076 16.6008 101.429 17.1362 100.945 17.8053V16.1333H97.2547V30.4774H100.945V22.792C100.945 20.2987 102.298 19.2427 104.106 19.2427C104.495 19.2146 104.885 19.2722 105.249 19.4111C105.613 19.5501 105.942 19.7672 106.213 20.047C106.483 20.3269 106.689 20.6626 106.815 21.0305C106.942 21.3983 106.985 21.7894 106.943 22.176V30.5213H110.648V21.7214C110.648 17.9227 108.267 15.796 105.223 15.796V15.796ZM124.674 17.9813C124.145 17.2729 123.451 16.7038 122.652 16.323C121.852 15.9423 120.972 15.7614 120.087 15.796C119.134 15.8036 118.191 15.9999 117.314 16.3737C116.437 16.7475 115.643 17.2912 114.979 17.9734C114.314 18.6555 113.792 19.4626 113.442 20.3476C113.092 21.2327 112.922 22.1782 112.942 23.1294C112.92 24.081 113.089 25.0274 113.438 25.9133C113.787 26.7993 114.309 27.6071 114.974 28.2897C115.639 28.9722 116.434 29.5159 117.312 29.889C118.19 30.2621 119.133 30.4571 120.087 30.4627C120.972 30.4973 121.852 30.3164 122.652 29.9357C123.451 29.5549 124.145 28.9858 124.674 28.2774V29.832C124.706 30.3218 124.629 30.8125 124.449 31.2692C124.269 31.7258 123.99 32.137 123.631 32.4734C123.273 32.8098 122.845 33.063 122.377 33.2149C121.909 33.3668 121.413 33.4136 120.925 33.352C120.167 33.4452 119.398 33.3022 118.724 32.9425C118.05 32.5827 117.504 32.024 117.161 31.3427L114 33.1614C114.702 34.3134 115.709 35.2501 116.91 35.8685C118.111 36.4869 119.46 36.7631 120.808 36.6667C124.586 36.6667 128.291 34.54 128.291 29.8467V16.1333H124.674V17.9813ZM120.661 27.06C119.889 27.0427 119.139 26.7988 118.506 26.3587C117.872 25.9187 117.383 25.3021 117.099 24.586C116.815 23.87 116.749 23.0862 116.909 22.3329C117.069 21.5795 117.448 20.89 117.999 20.3505C118.55 19.811 119.248 19.4455 120.006 19.2998C120.764 19.154 121.548 19.2345 122.261 19.531C122.973 19.8276 123.582 20.3271 124.011 20.9672C124.441 21.6072 124.671 22.3593 124.674 23.1294C124.689 23.6558 124.595 24.1796 124.397 24.668C124.2 25.1564 123.903 25.5989 123.527 25.9678C123.15 26.3368 122.701 26.6242 122.208 26.8121C121.715 27 121.188 27.0844 120.661 27.06ZM138.377 15.796C137.376 15.7715 136.382 15.951 135.453 16.3234C134.525 16.6959 133.683 17.2534 132.978 17.9619C132.274 18.6704 131.721 19.515 131.355 20.4439C130.989 21.3728 130.817 22.3664 130.849 23.364C130.814 24.3914 130.995 25.4147 131.381 26.3676C131.768 27.3205 132.351 28.1817 133.093 28.8953C133.834 29.6089 134.718 30.159 135.687 30.5099C136.655 30.8608 137.687 31.0046 138.715 30.932C139.923 30.9766 141.123 30.7196 142.207 30.1843C143.29 29.649 144.222 28.8524 144.919 27.8667L141.979 26.1507C141.591 26.6253 141.099 27.0044 140.54 27.2587C139.982 27.5131 139.372 27.6358 138.759 27.6173C137.868 27.7325 136.966 27.5248 136.216 27.0323C135.466 26.5397 134.918 25.7949 134.672 24.9333H145.551C145.643 24.4496 145.692 23.9589 145.698 23.4667C145.757 22.4751 145.61 21.4821 145.268 20.5493C144.925 19.6166 144.394 18.7641 143.708 18.0447C143.021 17.3254 142.194 16.7545 141.276 16.3677C140.359 15.9808 139.372 15.7863 138.377 15.796V15.796ZM134.613 22C134.767 21.1339 135.236 20.3552 135.931 19.8137C136.626 19.2722 137.497 19.0061 138.377 19.0667C139.227 19.0353 140.059 19.3167 140.715 19.8576C141.371 20.3984 141.805 21.1609 141.935 22H134.613ZM158.989 17.8787C158.433 17.1994 157.727 16.6578 156.926 16.2964C156.125 15.9351 155.251 15.7638 154.373 15.796C153.416 15.8337 152.476 16.0597 151.608 16.461C150.739 16.8622 149.958 17.4309 149.311 18.1342C148.663 18.8376 148.161 19.6617 147.834 20.5592C147.507 21.4567 147.36 22.41 147.404 23.364C147.36 24.3181 147.507 25.2713 147.834 26.1688C148.161 27.0663 148.663 27.8905 149.311 28.5938C149.958 29.2971 150.739 29.8658 151.608 30.2671C152.476 30.6684 153.416 30.8943 154.373 30.932C155.262 30.9717 156.148 30.8026 156.96 30.4384C157.772 30.0741 158.487 29.5248 159.048 28.8347V30.536H162.753V16.1333H159.048L158.989 17.8787ZM155.005 27.3974C154.473 27.4123 153.943 27.317 153.45 27.1175C152.956 26.918 152.509 26.6186 152.138 26.2383C151.766 25.8579 151.478 25.4048 151.29 24.9075C151.103 24.4103 151.021 23.8797 151.05 23.3493C151.05 22.2991 151.468 21.2919 152.213 20.5492C152.957 19.8066 153.967 19.3893 155.019 19.3893C156.072 19.3893 157.082 19.8066 157.826 20.5492C158.571 21.2919 158.989 22.2991 158.989 23.3493C159.018 23.8829 158.935 24.4167 158.746 24.9167C158.557 25.4168 158.267 25.8722 157.892 26.2542C157.517 26.6361 157.067 26.9363 156.57 27.1356C156.073 27.3349 155.54 27.429 155.005 27.412V27.3974ZM169.633 18.5973V16.1333H165.928V30.4774H169.633V23.6867C169.607 23.1328 169.71 22.5804 169.934 22.0731C170.159 21.5657 170.498 21.1173 170.926 20.7632C171.353 20.409 171.858 20.1589 172.399 20.0325C172.94 19.906 173.503 19.9068 174.044 20.0347V15.9133C173.111 15.8468 172.18 16.0781 171.388 16.5738C170.595 17.0694 169.98 17.8038 169.633 18.6707V18.5973Z" fill="white"/>
</g>
<defs>
<clipPath id="clip0_401_145">
<rect width="174" height="44" fill="white"/>
</clipPath>
</defs>
</svg>
