<svg width="187" height="48" viewBox="0 0 187 48" fill="none" xmlns="http://www.w3.org/2000/svg">
<g id="Frame">
<path id="Vector" d="M9.43387 0.372437L0.209656 5.66899L9.43387 10.9655L0.209656 16.1793L9.43387 21.4759L0.209656 26.6897L9.43387 31.9862L21.4254 25.2L27.9662 31.9862V21.5173L37.1904 16.2207L9.43387 0.372437ZM26.289 27.6L11.111 11.8759L26.289 20.4828V27.6Z" fill="black"/>
<path id="Vector_2" d="M186.79 24H183.52V18.7035H180.585V24H177.231V26.8138H180.585V40.5518H183.52V26.7725H186.79V24ZM170.019 23.5862C169.046 23.5335 168.076 23.7353 167.207 24.1713C166.338 24.6073 165.602 25.2619 165.072 26.069V24H162.137V40.5518H165.072V31.0759C165.018 30.4164 165.103 29.7531 165.319 29.1269C165.535 28.5006 165.879 27.9247 166.329 27.4345C167.126 26.6982 168.173 26.2846 169.264 26.2759C169.724 26.2528 170.184 26.3215 170.616 26.4779C171.049 26.6343 171.444 26.8753 171.78 27.1862C172.113 27.5395 172.367 27.9578 172.526 28.4139C172.685 28.87 172.745 29.354 172.702 29.8345V40.4276H175.637V29.669C175.656 28.522 175.397 27.3872 174.883 26.3587C174.419 25.4766 173.724 24.7336 172.87 24.2069C171.987 23.7655 171.009 23.5385 170.019 23.5449V23.5862ZM145.91 31.0759C146.069 29.7322 146.726 28.4941 147.755 27.6C148.812 26.7268 150.151 26.257 151.529 26.2759C152.816 26.2566 154.067 26.6975 155.051 27.5173C155.571 27.9636 155.995 28.5086 156.298 29.12C156.6 29.7313 156.775 30.3965 156.812 31.0759H145.91ZM159.747 33.5587C159.816 33.1208 159.844 32.6775 159.831 32.2345C159.837 30.716 159.493 29.2161 158.824 27.8483C158.182 26.5409 157.198 25.4266 155.973 24.6207C154.673 23.8044 153.152 23.4 151.613 23.4621C150.027 23.4522 148.466 23.8516 147.084 24.6207C145.773 25.3628 144.698 26.4521 143.982 27.7656C143.229 29.1358 142.853 30.6765 142.891 32.2345C142.853 33.7925 143.229 35.3332 143.982 36.7035C144.698 38.0169 145.773 39.1063 147.084 39.8483C148.466 40.6174 150.027 41.0168 151.613 41.0069C153.339 41.0235 155.032 40.5338 156.476 39.6C157.783 38.7229 158.756 37.4419 159.243 35.9587H156.225C155.866 36.7264 155.242 37.3427 154.464 37.6966C153.414 38.216 152.238 38.4368 151.068 38.3345C149.898 38.2322 148.78 37.8108 147.839 37.1173C146.767 36.2113 146.079 34.9414 145.91 33.5587H159.747ZM131.445 38.069C130.391 38.0778 129.352 37.8215 128.426 37.3242C127.523 36.8053 126.772 36.0638 126.246 35.1725C125.75 34.2555 125.491 33.2323 125.491 32.1931C125.491 31.154 125.75 30.1308 126.246 29.2138C126.772 28.3225 127.523 27.581 128.426 27.0621C129.355 26.5731 130.392 26.3173 131.445 26.3173C132.498 26.3173 133.535 26.5731 134.464 27.0621C135.367 27.581 136.118 28.3225 136.644 29.2138C137.14 30.1308 137.399 31.154 137.399 32.1931C137.399 33.2323 137.14 34.2555 136.644 35.1725C136.118 36.0638 135.367 36.8053 134.464 37.3242C133.538 37.8215 132.499 38.0778 131.445 38.069V38.069ZM137.399 24V26.8966C136.717 25.892 135.795 25.0679 134.715 24.4966C133.581 23.896 132.313 23.5832 131.026 23.5862C129.522 23.5985 128.048 23.9979 126.749 24.7449C125.438 25.4869 124.363 26.5763 123.646 27.8897C122.878 29.1973 122.473 30.6817 122.472 32.1931C122.473 33.7307 122.878 35.2418 123.646 36.5794C124.387 37.8756 125.456 38.9594 126.749 39.7242C128.039 40.4919 129.519 40.8928 131.026 40.8828C132.282 40.8914 133.521 40.5938 134.633 40.0163C135.745 39.4388 136.695 38.5994 137.399 37.5725V39.8897C137.429 40.5733 137.318 41.2559 137.073 41.896C136.828 42.5362 136.454 43.1206 135.973 43.6138C134.828 44.5625 133.356 45.037 131.864 44.938C130.907 44.9806 129.954 44.7812 129.097 44.3587C128.369 44.0556 127.733 43.5708 127.252 42.9518C126.872 42.4498 126.666 41.8404 126.665 41.2138H123.73C123.735 42.4158 124.149 43.5815 124.904 44.5242C125.679 45.5326 126.725 46.3066 127.923 46.7587C129.159 47.3178 130.505 47.6004 131.864 47.5862C133.313 47.589 134.744 47.2783 136.057 46.6759C137.324 46.0995 138.399 45.1814 139.16 44.0276C139.959 42.7635 140.367 41.2966 140.334 39.8069V24H137.399ZM116.938 40.5518H119.915V24H116.98L116.938 40.5518ZM116.938 21.0207H119.915V17.3794H116.98L116.938 21.0207ZM110.397 40.5518H113.332V16.6759H110.397V40.5518ZM103.856 40.5518H106.791V16.6759H103.856V40.5518ZM87.5881 31.1173C87.7471 29.7736 88.4043 28.5355 89.433 27.6414C90.4895 26.7682 91.8286 26.2983 93.2065 26.3173C94.4938 26.298 95.7448 26.7389 96.7285 27.5587C97.2488 28.005 97.6728 28.55 97.9754 29.1614C98.2779 29.7727 98.4527 30.4379 98.4895 31.1173H87.5881ZM101.424 33.6C101.494 33.1622 101.522 32.7189 101.508 32.2759C101.514 30.7574 101.17 29.2575 100.502 27.8897C99.86 26.5823 98.8757 25.468 97.6509 24.6621C96.3513 23.8457 94.8296 23.4414 93.2904 23.5035C91.7044 23.4936 90.1434 23.893 88.7621 24.6621C87.4508 25.4042 86.3761 26.4935 85.6594 27.8069C84.9071 29.1772 84.5313 30.7179 84.5693 32.2759C84.5313 33.8339 84.9071 35.3746 85.6594 36.7449C86.3761 38.0583 87.4508 39.1476 88.7621 39.8897C90.1434 40.6588 91.7044 41.0582 93.2904 41.0483C95.017 41.0649 96.7097 40.5752 98.154 39.6414C99.4603 38.7643 100.434 37.4832 100.921 36H97.9025C97.5439 36.7678 96.9194 37.3841 96.1415 37.738C95.0915 38.2573 93.9158 38.4782 92.7459 38.3759C91.5759 38.2736 90.4579 37.8522 89.5168 37.1587C88.9719 36.7217 88.5206 36.182 88.1894 35.571C87.8583 34.96 87.6539 34.2899 87.5881 33.6H101.424ZM84.15 24H80.8796V18.7035H77.9865V24H74.6323V26.8138H77.9865V40.5518H80.9215V26.7725H84.1919L84.15 24ZM63.7309 38.1931C62.6769 38.2019 61.638 37.9456 60.7121 37.4483C59.8089 36.9294 59.0577 36.188 58.5318 35.2966C58.0363 34.3797 57.7771 33.3565 57.7771 32.3173C57.7771 31.2781 58.0363 30.2549 58.5318 29.338C59.034 28.4289 59.7909 27.6818 60.7121 27.1862C61.6412 26.6972 62.678 26.4414 63.7309 26.4414C64.7839 26.4414 65.8207 26.6972 66.7498 27.1862C67.653 27.7052 68.4042 28.4466 68.93 29.338C69.4256 30.2549 69.6848 31.2781 69.6848 32.3173C69.6848 33.3565 69.4256 34.3797 68.93 35.2966C68.4279 36.2057 67.6709 36.9527 66.7498 37.4483C65.8318 37.9652 64.7874 38.2229 63.7309 38.1931V38.1931ZM69.7267 17.3794V26.8138C69.0347 25.7809 68.0849 24.9414 66.9686 24.376C65.8523 23.8107 64.6073 23.5387 63.3536 23.5862C61.875 23.5876 60.425 23.9883 59.1608 24.7449C57.868 25.5103 56.7989 26.5939 56.0581 27.8897C55.2884 29.2268 54.8838 30.7382 54.8838 32.2759C54.8838 33.8137 55.2884 35.325 56.0581 36.6621C56.7989 37.9579 57.868 39.0415 59.1608 39.8069C60.425 40.5635 61.875 40.9642 63.3536 40.9656C64.635 41.006 65.9054 40.721 67.0433 40.138C68.1066 39.5437 69.0231 38.724 69.7267 37.738V40.5518H72.6617V17.3794H69.7267ZM43.3119 38.2345C42.2578 38.2433 41.2189 37.987 40.2931 37.4897C39.3898 36.9708 38.6386 36.2294 38.1128 35.338C37.6173 34.421 37.3581 33.3978 37.3581 32.3587C37.3581 31.3195 37.6173 30.2963 38.1128 29.3794C38.6149 28.4702 39.3719 27.7232 40.2931 27.2276C41.2221 26.7386 42.2589 26.4828 43.3119 26.4828C44.3649 26.4828 45.4016 26.7386 46.3307 27.2276C47.2339 27.7466 47.9852 28.488 48.511 29.3794C49.0065 30.2963 49.2657 31.3195 49.2657 32.3587C49.2657 33.3978 49.0065 34.421 48.511 35.338C48.0088 36.2471 47.2519 36.9941 46.3307 37.4897C45.4127 38.0066 44.3683 38.2642 43.3119 38.2345V38.2345ZM49.2657 24V26.8138C48.5738 25.7809 47.6239 24.9414 46.5076 24.376C45.3913 23.8107 44.1463 23.5387 42.8926 23.5862C41.3859 23.5909 39.9077 23.9922 38.6106 24.7487C37.3134 25.5051 36.2442 26.5894 35.5132 27.8897C34.7436 29.2268 34.339 30.7382 34.339 32.2759C34.339 33.8137 34.7436 35.325 35.5132 36.6621C36.2442 37.9624 37.3134 39.0467 38.6106 39.8031C39.9077 40.5596 41.3859 40.9609 42.8926 40.9656C44.174 41.006 45.4445 40.721 46.5823 40.138C47.6456 39.5437 48.5621 38.724 49.2657 37.738V40.5518H52.2007V24H49.2657Z" fill="black"/>
</g>
</svg>
