<svg width="181" height="38" viewBox="0 0 181 38" fill="none" xmlns="http://www.w3.org/2000/svg">
<path d="M2.28632 36.1905L5.63095 31.7444L2.49016 28.3498H3.44901L7.96388 33.3441V28.3498H8.71888V33.3441L13.2337 28.3498H14.1926L11.0367 31.7444L14.3964 36.1905H13.4678L10.5611 32.2852L8.71888 34.2679V36.1905H7.96388V34.2679L6.1217 32.2702L3.21496 36.1905H2.28632ZM16.2311 36.1905V28.3498H16.9936V35.1916L22.339 28.3498H23.1015V36.1905H22.339V29.3487L16.9936 36.1905H16.2311ZM24.5965 36.1905L24.7399 35.4995C24.9866 35.5696 25.1853 35.6047 25.3364 35.6047C25.5075 35.6047 25.6509 35.5922 25.7667 35.5671C25.8875 35.5371 26.0158 35.4695 26.1517 35.3644C26.2877 35.2592 26.4009 35.1116 26.4915 34.9213C26.5821 34.731 26.6701 34.4682 26.7557 34.1327C26.8463 33.7972 26.9168 33.3917 26.9671 32.9161C27.0225 32.4354 27.0678 31.8471 27.103 31.1511C27.1383 30.4552 27.1584 29.6591 27.1634 28.7629V28.3498H32.5314V36.1905H31.7689V29.0257H27.8882V29.236C27.8882 30.1523 27.8656 30.9659 27.8203 31.6768C27.78 32.3828 27.7247 32.9837 27.6542 33.4793C27.5888 33.975 27.4981 34.3981 27.3824 34.7485C27.2666 35.094 27.1483 35.3693 27.0275 35.5746C26.9067 35.7749 26.7557 35.9326 26.5745 36.0478C26.3934 36.1579 26.2196 36.228 26.0536 36.2581C25.8925 36.2931 25.6962 36.3106 25.4647 36.3106C25.1777 36.3106 24.8883 36.2706 24.5965 36.1905ZM34.8719 32.2702C34.8719 31.7244 34.9751 31.2012 35.1815 30.7005C35.3879 30.1998 35.6672 29.7642 36.0196 29.3937C36.3718 29.0182 36.8022 28.7203 37.3106 28.5C37.8189 28.2747 38.36 28.162 38.9338 28.162C39.6939 28.162 40.3834 28.3498 41.0025 28.7253C41.6267 29.0958 42.1098 29.5965 42.4521 30.2274C42.7994 30.8532 42.9731 31.5342 42.9731 32.2702C42.9731 33.0011 42.7994 33.6796 42.4521 34.3054C42.1048 34.9312 41.6166 35.4345 40.9874 35.815C40.3633 36.1905 39.6687 36.3782 38.9036 36.3782C38.3348 36.3782 37.7988 36.2681 37.2955 36.0478C36.7921 35.8275 36.3643 35.5321 36.012 35.1616C35.6597 34.7911 35.3803 34.3555 35.174 33.8548C34.9726 33.3491 34.8719 32.8209 34.8719 32.2702ZM35.6873 32.2702C35.6873 33.2164 35.9994 34.0201 36.6235 34.6809C37.2527 35.3368 38.0227 35.6647 38.9338 35.6647C39.5076 35.6647 40.0411 35.5145 40.5344 35.2142C41.0276 34.9087 41.4203 34.4957 41.7122 33.975C42.0041 33.4542 42.1501 32.886 42.1501 32.2702C42.1501 31.3289 41.833 30.5278 41.1988 29.8669C40.5646 29.201 39.7995 28.868 38.9036 28.868C38.3197 28.868 37.7812 29.0207 37.2879 29.3261C36.7947 29.6266 36.4046 30.0396 36.1177 30.5653C35.8307 31.086 35.6873 31.6543 35.6873 32.2702ZM45.2984 36.1905V28.3498H46.061V35.1916L51.4064 28.3498H52.1689V36.1905H51.4064V29.3487L46.061 36.1905H45.2984ZM46.6499 25.3007L47.284 25.1655C47.4854 25.9115 47.9686 26.2845 48.7337 26.2845C49.5038 26.2845 49.9895 25.9115 50.1908 25.1655L50.825 25.3007C50.7294 25.8113 50.4903 26.2344 50.1077 26.5699C49.7252 26.9053 49.2672 27.0731 48.7337 27.0731C48.2001 27.0731 47.7421 26.9053 47.3595 26.5699C46.9821 26.2344 46.7455 25.8113 46.6499 25.3007ZM59.6735 36.1905V28.3498H60.4361V33.3741L65.3209 28.3498H66.3251L62.8747 31.8195L66.4307 36.1905H65.4719L62.3538 32.3603L60.4361 34.2829V36.1905H59.6735ZM67.7293 32.2702C67.7293 31.7244 67.8325 31.2012 68.0389 30.7005C68.2453 30.1998 68.5246 29.7642 68.877 29.3937C69.2292 29.0182 69.6596 28.7203 70.168 28.5C70.6763 28.2747 71.2174 28.162 71.7913 28.162C72.5513 28.162 73.2408 28.3498 73.8599 28.7253C74.4841 29.0958 74.9672 29.5965 75.3095 30.2274C75.6568 30.8532 75.8305 31.5342 75.8305 32.2702C75.8305 33.0011 75.6568 33.6796 75.3095 34.3054C74.9622 34.9312 74.474 35.4345 73.8448 35.815C73.2207 36.1905 72.5261 36.3782 71.7611 36.3782C71.1922 36.3782 70.6562 36.2681 70.1529 36.0478C69.6495 35.8275 69.2217 35.5321 68.8694 35.1616C68.5171 34.7911 68.2377 34.3555 68.0314 33.8548C67.83 33.3491 67.7293 32.8209 67.7293 32.2702ZM68.5447 32.2702C68.5447 33.2164 68.8568 34.0201 69.4809 34.6809C70.1101 35.3368 70.8802 35.6647 71.7913 35.6647C72.365 35.6647 72.8985 35.5145 73.3918 35.2142C73.885 34.9087 74.2777 34.4957 74.5696 33.975C74.8615 33.4542 75.0075 32.886 75.0075 32.2702C75.0075 31.3289 74.6904 30.5278 74.0562 29.8669C73.422 29.201 72.657 28.868 71.7611 28.868C71.1771 28.868 70.6386 29.0207 70.1453 29.3261C69.6521 29.6266 69.262 30.0396 68.9751 30.5653C68.6882 31.086 68.5447 31.6543 68.5447 32.2702ZM78.1558 36.1905V28.3498H78.8429L82.0591 32.856L85.2755 28.3498H85.9549V36.1905H85.1924V29.6566L82.0214 33.99L78.8882 29.6566V36.1905H78.1558ZM88.8315 36.1905V28.3498H95.3925V36.1905H94.6303V29.0257H89.594V36.1905H88.8315ZM96.8951 36.1905L97.0378 35.4995C97.2852 35.5696 97.4835 35.6047 97.6345 35.6047C97.8055 35.6047 97.9492 35.5922 98.0647 35.5671C98.1857 35.5371 98.3139 35.4695 98.4504 35.3644C98.5859 35.2592 98.6996 35.1116 98.7896 34.9213C98.8806 34.731 98.9688 34.4682 99.0543 34.1327C99.1444 33.7972 99.2153 33.3917 99.2653 32.9161C99.3208 32.4354 99.3663 31.8471 99.4018 31.1511C99.4363 30.4552 99.4563 29.6591 99.4618 28.7629V28.3498H104.83V36.1905H104.068V29.0257H100.187V29.236C100.187 30.1523 100.164 30.9659 100.118 31.6768C100.078 32.3828 100.023 32.9837 99.9529 33.4793C99.8875 33.975 99.7965 34.3981 99.681 34.7485C99.5646 35.094 99.4463 35.3693 99.3263 35.5746C99.2053 35.7749 99.0543 35.9326 98.8733 36.0478C98.6914 36.1579 98.5177 36.228 98.3521 36.2581C98.1912 36.2931 97.9947 36.3106 97.7628 36.3106C97.4762 36.3106 97.187 36.2706 96.8951 36.1905ZM107.17 32.2551C107.17 31.6944 107.266 31.1636 107.458 30.663C107.649 30.1573 107.908 29.7217 108.235 29.3562C108.562 28.9907 108.957 28.7003 109.42 28.485C109.888 28.2697 110.384 28.162 110.908 28.162C111.627 28.162 112.264 28.3448 112.818 28.7103C113.376 29.0708 113.802 29.5615 114.094 30.1823C114.386 30.8031 114.531 31.4991 114.531 32.2702C114.531 32.3953 114.527 32.498 114.517 32.578H107.971C108.036 33.5194 108.365 34.2704 108.959 34.8312C109.559 35.3869 110.261 35.6647 111.066 35.6647C112.103 35.6647 113.004 35.2567 113.769 34.4406L114.297 34.8988C113.854 35.3744 113.376 35.7399 112.863 35.9952C112.355 36.2506 111.745 36.3782 111.036 36.3782C110.523 36.3782 110.029 36.2781 109.556 36.0778C109.088 35.8775 108.678 35.6022 108.325 35.2517C107.973 34.8962 107.691 34.4607 107.479 33.945C107.274 33.4242 107.17 32.861 107.17 32.2551ZM107.971 31.9022H113.709C113.683 31.4966 113.605 31.1161 113.474 30.7606C113.343 30.4001 113.165 30.0772 112.939 29.7918C112.712 29.5014 112.42 29.2736 112.063 29.1083C111.711 28.9381 111.315 28.853 110.878 28.853C110.103 28.853 109.44 29.1434 108.892 29.7242C108.348 30.305 108.041 31.031 107.971 31.9022ZM116.736 36.1905V28.3498H117.499V33.3741L122.383 28.3498H123.387L119.938 31.8195L123.493 36.1905H122.534L119.416 32.3603L117.499 34.2829V36.1905H116.736ZM124.792 32.2702C124.792 31.5291 124.968 30.8457 125.32 30.2199C125.673 29.589 126.156 29.0883 126.77 28.7178C127.389 28.3473 128.069 28.162 128.808 28.162C130.036 28.162 131.083 28.6502 131.949 29.6265L131.421 30.1598C131.019 29.7492 130.613 29.4313 130.205 29.206C129.802 28.9807 129.332 28.868 128.794 28.868C128.22 28.868 127.689 29.0207 127.2 29.3261C126.712 29.6266 126.324 30.0396 126.038 30.5653C125.75 31.086 125.608 31.6543 125.608 32.2702C125.608 33.2164 125.921 34.0201 126.551 34.6809C127.18 35.3368 127.948 35.6647 128.854 35.6647C129.795 35.6647 130.668 35.2191 131.473 34.3279L132.025 34.8237C131.587 35.3193 131.111 35.7023 130.597 35.9727C130.09 36.2431 129.493 36.3782 128.808 36.3782C128.063 36.3782 127.381 36.1955 126.763 35.83C126.149 35.4595 125.665 34.9613 125.313 34.3355C124.966 33.7046 124.792 33.0161 124.792 32.2702Z" fill="white"/>
<path d="M16.8249 19.5755C16.0245 20.1593 15.0506 20.5972 13.9034 20.8892C12.7829 21.2077 11.6223 21.3669 10.4217 21.3669C8.82084 21.3669 7.46016 21.1147 6.3396 20.6105C5.24572 20.1063 4.35194 19.4029 3.65825 18.5006C2.96457 17.5717 2.45765 16.457 2.13749 15.1566C1.84401 13.8562 1.69727 12.4231 1.69727 10.8572C1.69727 7.48668 2.45765 4.89906 3.97841 3.09433C5.49918 1.26309 7.71362 0.347473 10.6218 0.347473C12.0892 0.347473 13.2631 0.466902 14.1436 0.705759C15.0506 0.944616 15.8644 1.24979 16.5848 1.62138L15.3442 5.84119C14.7305 5.54922 14.1168 5.32366 13.5032 5.16443C12.9162 5.00519 12.2359 4.92557 11.4622 4.92557C10.0215 4.92557 8.92757 5.40328 8.18052 6.35871C7.43348 7.28763 7.05996 8.78709 7.05996 10.8572C7.05996 11.7065 7.15334 12.4894 7.3401 13.2059C7.52687 13.9225 7.80701 14.5462 8.18052 15.077C8.55405 15.6078 9.03429 16.0324 9.62128 16.3509C10.2349 16.6429 10.9419 16.7888 11.7423 16.7888C12.6228 16.7888 13.3698 16.6827 13.9835 16.4703C14.5971 16.2315 15.1441 15.9528 15.6243 15.6343L16.8249 19.5755ZM32.0172 11.733L32.2173 8.90652H32.0972L30.3763 11.8126L23.2528 20.8096H19.9711V0.904806H25.1737V10.3795L24.9336 13.0865H25.0937L26.7345 10.26L33.9381 0.904806H37.2198V20.8096H32.0172V11.733ZM56.1862 5.4829H50.5434V20.8096H45.1807V5.4829H39.5379V0.904806H56.1862V5.4829ZM70.5522 11.733L70.7523 8.90652H70.6322L68.9113 11.8126L61.7878 20.8096H58.5061V0.904806H63.7087V10.3795L63.4686 13.0865H63.6287L65.2695 10.26L72.4731 0.904806H75.7548V20.8096H70.5522V11.733ZM112.084 5.4829H105.761V20.8096H100.559V0.904806H117.287V20.8096H112.084V5.4829ZM121.738 2.05928C122.805 1.58157 124.072 1.20998 125.54 0.944616C127.007 0.652649 128.542 0.50671 130.143 0.50671C131.53 0.50671 132.69 0.679249 133.624 1.02423C134.558 1.34271 135.292 1.80713 135.825 2.41757C136.386 3.02801 136.772 3.75779 136.986 4.60709C137.226 5.45639 137.346 6.41182 137.346 7.47338C137.346 8.64115 137.306 9.82214 137.226 11.0164C137.146 12.1842 137.092 13.3387 137.066 14.4799C137.066 15.621 137.106 16.7357 137.186 17.8239C137.266 18.8854 137.466 19.8939 137.786 20.8494H133.544L132.704 18.1025H132.504C131.97 18.9252 131.223 19.6418 130.263 20.2522C129.329 20.8361 128.114 21.128 126.621 21.128C125.687 21.128 124.846 20.9953 124.1 20.7299C123.352 20.438 122.712 20.0399 122.179 19.5357C121.645 19.0048 121.231 18.3945 120.938 17.7044C120.644 16.9879 120.498 16.1917 120.498 15.3159C120.498 14.0951 120.764 13.0732 121.298 12.2505C121.858 11.4012 122.645 10.7245 123.659 10.2202C124.7 9.68941 125.927 9.33113 127.341 9.14538C128.782 8.93303 130.383 8.86671 132.144 8.94633C132.33 7.46008 132.224 6.39852 131.823 5.76157C131.423 5.09811 130.529 4.76633 129.142 4.76633C128.102 4.76633 126.994 4.87246 125.82 5.08481C124.673 5.29715 123.726 5.57582 122.979 5.92081L121.738 2.05928ZM128.342 16.8684C129.382 16.8684 130.209 16.6429 130.823 16.1917C131.436 15.7139 131.89 15.2097 132.184 14.6789V12.0913C131.356 12.0117 130.556 11.9984 129.782 12.0515C129.035 12.1046 128.368 12.224 127.781 12.4098C127.194 12.5955 126.727 12.861 126.381 13.2059C126.033 13.5509 125.86 13.9888 125.86 14.5197C125.86 15.2627 126.073 15.8467 126.501 16.2713C126.954 16.6694 127.568 16.8684 128.342 16.8684ZM141.712 0.904806H145.514L146.114 3.29338H146.274C146.968 2.28484 147.781 1.54176 148.716 1.06404C149.676 0.58633 150.837 0.347473 152.197 0.347473C154.705 0.347473 156.586 1.14366 157.84 2.73604C159.094 4.30192 159.721 6.83643 159.721 10.3397C159.721 12.0382 159.521 13.5775 159.121 14.9576C158.721 16.3111 158.12 17.4656 157.32 18.421C156.546 19.3764 155.585 20.1063 154.438 20.6105C153.318 21.1147 152.024 21.3669 150.557 21.3669C149.73 21.3669 149.049 21.3006 148.516 21.1679C147.982 21.0617 147.449 20.8759 146.915 20.6105V28.7715H141.712V0.904806ZM150.637 4.72652C149.622 4.72652 148.822 4.97868 148.235 5.4829C147.675 5.98712 147.235 6.74351 146.915 7.75205V16.0324C147.289 16.3244 147.689 16.5633 148.115 16.749C148.569 16.9082 149.156 16.9879 149.876 16.9879C151.371 16.9879 152.491 16.4703 153.238 15.4353C153.985 14.3737 154.358 12.6353 154.358 10.2202C154.358 8.46862 154.065 7.11509 153.478 6.15966C152.891 5.20424 151.944 4.72652 150.637 4.72652ZM169.928 12.569H168.527V20.8096H163.325V0.904806H168.527V9.38424L169.768 8.8269L174.45 0.904806H180.013L175.171 8.46862L173.13 9.98138L175.371 11.534L180.774 20.8096H174.811L169.928 12.569Z" fill="white"/>
<path d="M88.2261 14.4762C90.2355 14.4762 91.8643 12.8559 91.8643 10.8571C91.8643 8.8584 90.2355 7.2381 88.2261 7.2381C86.2168 7.2381 84.5879 8.8584 84.5879 10.8571C84.5879 12.8559 86.2168 14.4762 88.2261 14.4762Z" fill="#F1C650"/>
</svg>
