<svg width="47" height="48" viewBox="0 0 47 48" fill="none" xmlns="http://www.w3.org/2000/svg">
<path d="M32.0187 12.3897C32.7507 13.1217 33.9367 13.1237 34.6687 12.3897L37.2767 9.78173C38.0077 9.04973 38.0057 7.86373 37.2767 7.13073L30.6937 0.549732C29.9637 -0.182268 28.7777 -0.182268 28.0457 0.549732L25.4367 3.15773C24.7067 3.88973 24.7067 5.07573 25.4367 5.80573L32.0187 12.3897Z" fill="url(#paint0_linear_227_161)"/>
<path d="M16.4328 28.2677C17.1638 28.9967 18.3498 28.9967 19.0808 28.2677L21.6898 25.6577C22.4218 24.9277 22.4218 23.7407 21.6898 23.0087L15.1068 16.4257C14.3758 15.6957 13.1898 15.6937 12.4578 16.4257L9.84976 19.0337C9.11776 19.7657 9.11976 20.9517 9.84976 21.6837L16.4328 28.2677Z" fill="url(#paint1_linear_227_161)"/>
<path d="M46.3149 28.8937L43.6679 26.2437C42.9339 25.5137 41.7509 25.5137 41.0199 26.2437L39.8589 27.4037L28.6539 16.1967L31.0809 13.7687L24.3479 7.03772L21.9199 9.46572L18.8279 12.5557L16.4539 14.9297L23.1859 21.6627L25.5629 19.2897L36.7659 30.4947L35.7179 31.5437C34.9859 32.2727 34.9839 33.4597 35.7179 34.1917L38.3649 36.8397C39.0989 37.5737 40.2839 37.5737 41.0149 36.8397L46.3139 31.5427C47.0469 30.8097 47.0469 29.6257 46.3149 28.8937Z" fill="url(#paint2_linear_227_161)"/>
<path d="M26.7437 36.9428C26.7437 35.7438 25.7717 34.7698 24.5707 34.7698H7.60275C6.40275 34.7698 5.42975 35.7438 5.42975 36.9428V40.4698H0.666748V47.8588H31.2247V40.4698H26.7437V36.9428Z" fill="url(#paint3_linear_227_161)"/>
<defs>
<linearGradient id="paint0_linear_227_161" x1="31.3567" y1="0.000732422" x2="31.3567" y2="12.9395" gradientUnits="userSpaceOnUse">
<stop stop-color="#EF8080"/>
<stop offset="1" stop-color="#F0145A"/>
</linearGradient>
<linearGradient id="paint1_linear_227_161" x1="15.7701" y1="15.8774" x2="15.7701" y2="28.8144" gradientUnits="userSpaceOnUse">
<stop stop-color="#EF8080"/>
<stop offset="1" stop-color="#F0145A"/>
</linearGradient>
<linearGradient id="paint2_linear_227_161" x1="31.6588" y1="7.03772" x2="31.6588" y2="37.3902" gradientUnits="userSpaceOnUse">
<stop stop-color="#EF8080"/>
<stop offset="1" stop-color="#F0145A"/>
</linearGradient>
<linearGradient id="paint3_linear_227_161" x1="15.9457" y1="34.7698" x2="15.9457" y2="47.8588" gradientUnits="userSpaceOnUse">
<stop stop-color="#EF8080"/>
<stop offset="1" stop-color="#F0145A"/>
</linearGradient>
</defs>
</svg>
